<?xml version="1.0" standalone="no"?>
<!DOCTYPE svg PUBLIC "-//W3C//DTD SVG 20010904//EN"
 "http://www.w3.org/TR/2001/REC-SVG-20010904/DTD/svg10.dtd">
<svg version="1.0" xmlns="http://www.w3.org/2000/svg"
 width="512.000000pt" height="512.000000pt" viewBox="0 0 512.000000 512.000000"
 preserveAspectRatio="xMidYMid meet">
<metadata>
Created by potrace 1.11, written by Peter Selinger 2001-2013
</metadata>
<g transform="translate(0.000000,512.000000) scale(0.100000,-0.100000)"
fill="#000000" stroke="none">
<path d="M1363 3294 c-651 -651 -1183 -1186 -1183 -1189 0 -3 19 -5 42 -5 l43
0 1145 1145 1146 1146 1144 -1145 1145 -1146 50 0 50 0 -1190 1190 c-654 655
-1194 1190 -1200 1189 -5 0 -542 -534 -1192 -1185z"/>
<path d="M1620 3035 l-935 -935 1869 0 1870 0 -30 31 c-44 46 -1816 1818
-1829 1829 -7 6 -313 -293 -945 -925z m906 -5 c0 -451 -3 -819 -7 -818 -4 2
-63 57 -131 123 -68 66 -247 239 -397 385 -151 146 -280 271 -288 279 -13 12
42 70 404 433 230 230 418 418 418 418 1 0 1 -369 1 -820z m894 -18 c0 -5 -37
-44 -82 -87 -46 -43 -199 -191 -341 -329 -298 -289 -400 -386 -407 -386 -3 0
-4 369 -2 820 l2 820 415 -415 c228 -228 415 -419 415 -423z m-1554 -258 c28
-27 171 -166 318 -309 148 -143 272 -261 277 -263 5 -2 9 -7 9 -11 0 -3 -367
-6 -815 -7 l-815 0 402 403 403 403 85 -84 c47 -46 108 -106 136 -132z m2404
-587 c0 -1 -364 -2 -810 -2 -445 0 -810 2 -810 5 0 4 42 46 93 95 81 77 484
467 664 642 l64 62 399 -399 c220 -220 400 -401 400 -403z"/>
<path d="M4157 1844 c-1 -2 -14 -5 -27 -7 -246 -45 -293 -372 -69 -488 34 -17
64 -23 129 -25 97 -3 162 14 231 61 45 32 58 53 40 64 -15 10 -18 94 -3 99 7
2 12 11 12 21 0 15 -12 17 -102 16 -78 -1 -107 2 -121 13 -24 21 -31 10 -32
-48 -1 -51 16 -74 33 -44 6 11 23 14 67 12 57 -3 58 -3 60 -35 2 -21 -4 -38
-16 -48 -49 -45 -183 -59 -254 -26 -144 67 -154 258 -17 338 65 38 162 39 244
1 31 -14 55 -32 55 -40 -4 -31 20 -18 47 26 21 33 26 50 19 57 -8 8 -13 8 -17
0 -5 -7 -19 -5 -44 8 -61 30 -114 44 -174 46 -32 1 -59 0 -61 -1z"/>
<path d="M4723 1829 c-225 -70 -258 -358 -54 -473 46 -25 67 -30 137 -33 97
-3 153 12 223 57 52 33 70 58 49 71 -16 10 -17 87 -1 101 33 27 13 34 -93 33
-80 -1 -110 3 -121 13 -19 20 -28 8 -30 -43 -2 -46 19 -80 31 -50 4 11 21 15
69 15 l63 0 -5 -42 c-5 -34 -12 -46 -39 -61 -47 -28 -159 -35 -215 -13 -173
66 -168 303 9 363 80 28 234 -10 254 -62 12 -32 21 -27 55 31 18 30 24 49 17
56 -6 6 -12 6 -16 -1 -5 -7 -23 -3 -54 13 -87 44 -187 53 -279 25z"/>
<path d="M54 1829 c-3 -6 -1 -16 5 -22 14 -14 16 -447 1 -447 -5 0 -10 -7 -10
-15 0 -11 13 -15 54 -15 58 0 75 10 51 30 -12 10 -15 45 -15 191 0 113 4 179
10 179 6 0 10 -3 10 -7 0 -5 13 -21 28 -38 15 -16 68 -77 117 -135 49 -58 92
-107 95 -110 47 -46 62 -70 51 -84 -18 -22 7 -30 92 -27 37 1 53 23 24 34 -19
7 -17 434 2 446 26 16 0 30 -54 29 -37 -1 -55 -6 -55 -14 0 -7 6 -14 12 -16 9
-3 13 -50 13 -176 0 -95 -2 -172 -5 -171 -3 0 -41 43 -85 96 -44 52 -90 107
-103 122 -82 93 -102 120 -92 126 5 3 10 12 10 19 0 16 -146 21 -156 5z"/>
<path d="M610 1824 c0 -8 4 -14 10 -14 5 0 35 -35 67 -77 32 -43 60 -80 64
-83 3 -3 21 -26 41 -52 34 -46 36 -51 36 -130 0 -52 -5 -91 -14 -104 -18 -29
-10 -34 52 -34 56 0 73 10 49 30 -11 9 -14 34 -12 103 l2 92 89 123 c50 67 95
122 102 122 14 0 27 27 16 34 -4 2 -34 3 -67 3 -57 -2 -60 -3 -57 -25 1 -16
-19 -53 -59 -108 -33 -46 -62 -84 -64 -84 -11 0 -132 180 -125 185 6 4 10 12
10 20 0 11 -17 14 -70 14 -54 0 -70 -4 -70 -15z"/>
<path d="M1258 1829 c-9 -6 -9 -11 0 -21 8 -11 2 -33 -29 -97 -21 -45 -39 -84
-39 -86 0 -17 -124 -257 -135 -261 -8 -4 -15 -12 -15 -20 0 -11 16 -14 65 -14
49 0 65 3 65 14 0 8 -5 16 -11 18 -12 4 25 97 39 99 21 4 229 5 240 1 17 -6
56 -96 42 -100 -5 -2 -10 -10 -10 -18 0 -14 39 -19 100 -14 39 3 45 11 22 29
-12 9 -58 95 -102 191 -44 96 -87 188 -96 203 -10 18 -13 38 -9 57 l7 30 -62
-2 c-33 -1 -66 -5 -72 -9z m110 -191 c23 -51 42 -96 42 -100 0 -5 -40 -8 -90
-8 -49 0 -90 3 -90 6 0 12 84 194 90 194 3 0 24 -42 48 -92z"/>
<path d="M1636 1825 c-2 -7 2 -16 10 -19 12 -4 14 -43 14 -225 0 -189 -2 -220
-16 -225 -31 -12 -1 -26 57 -26 44 0 59 4 59 14 0 8 -6 16 -13 19 -10 4 -13
29 -12 93 l1 89 85 3 86 3 55 -88 c31 -49 55 -98 54 -111 -1 -22 3 -24 62 -25
49 -2 62 1 62 13 0 8 -8 20 -18 27 -17 10 -104 140 -117 175 -4 11 2 17 23 21
40 8 92 64 93 101 4 83 -11 115 -72 151 -30 17 -54 20 -221 21 -147 2 -188 -1
-192 -11z m389 -80 c27 -26 31 -49 16 -88 -13 -35 -49 -43 -186 -42 l-120 0
-1 65 c0 36 2 71 4 78 3 9 39 12 134 12 124 0 130 -1 153 -25z"/>
<path d="M2205 1829 c-4 -5 0 -15 7 -23 11 -10 14 -59 13 -225 0 -129 -4 -215
-10 -219 -23 -16 -14 -32 17 -33 81 -3 110 8 83 31 -11 9 -15 33 -15 100 l0
88 138 4 c153 4 175 11 212 65 47 69 26 153 -51 198 -30 18 -54 20 -211 22
-104 1 -180 -2 -183 -8z m370 -84 c28 -27 32 -70 10 -98 -19 -25 -62 -33 -180
-33 l-100 1 -3 78 -3 77 126 0 c120 0 127 -1 150 -25z"/>
<path d="M2920 1826 c0 -6 5 -17 11 -23 15 -15 14 -436 -1 -441 -5 -2 -10 -10
-10 -19 0 -12 28 -14 203 -11 l204 3 35 27 c48 37 60 76 49 165 0 6 -14 24
-30 39 l-29 27 25 34 c22 28 25 41 21 83 -5 54 -24 82 -73 108 -40 21 -405 28
-405 8z m365 -66 c29 -11 49 -53 41 -86 -3 -12 -19 -27 -36 -34 -37 -15 -270
-20 -271 -5 -1 12 -1 129 0 133 3 7 244 0 266 -8z m7 -211 c51 -27 65 -92 28
-129 -24 -24 -14 -22 -168 -25 -78 -2 -125 1 -129 8 -3 6 -6 25 -5 44 0 18 1
51 1 74 l1 40 128 -2 c70 0 135 -5 144 -10z"/>
<path d="M3420 1826 c0 -8 6 -16 14 -19 7 -3 57 -62 110 -131 l96 -125 0 -95
c0 -53 -4 -96 -9 -96 -5 0 -11 -7 -15 -15 -4 -12 6 -15 59 -15 49 0 65 3 65
14 0 8 -6 16 -13 19 -10 4 -13 29 -12 99 l2 94 86 117 c48 64 96 122 107 129
38 24 23 36 -45 36 -64 -1 -91 -12 -65 -28 10 -6 -4 -32 -51 -99 -35 -50 -66
-91 -69 -91 -3 0 -34 39 -68 86 -44 60 -60 89 -53 98 18 22 -4 32 -71 34 -53
2 -68 -1 -68 -12z"/>
<path d="M22 1090 c-10 -7 -11 -54 -2 -60 7 -4 4998 -5 5023 -1 4 0 7 15 7 31
0 17 -3 30 -7 31 -32 4 -5016 3 -5021 -1z"/>
</g>
</svg>
